<svg xmlns="http://www.w3.org/2000/svg" width="512" height="512" viewBox="0 0 512 512">
<defs>
<linearGradient id="bg" x1="0.15" y1="0" x2="0.9" y2="1"><stop offset="0%" stop-color="#173a63"></stop><stop offset="55%" stop-color="#0f2748"></stop><stop offset="100%" stop-color="#081426"></stop></linearGradient>
<linearGradient id="ring" x1="0" y1="0" x2="1" y2="1"><stop offset="0%" stop-color="#33e0cb"></stop><stop offset="100%" stop-color="#38bdf8"></stop></linearGradient>
<linearGradient id="bar" x1="0" y1="0" x2="0.25" y2="1"><stop offset="0%" stop-color="#ffffff"></stop><stop offset="100%" stop-color="#c3d2ec"></stop></linearGradient>
<radialGradient id="gloss" cx="0.5" cy="0" r="0.9"><stop offset="0%" stop-color="#ffffff" stop-opacity="0.16"></stop><stop offset="45%" stop-color="#ffffff" stop-opacity="0"></stop></radialGradient>
<filter id="sh" x="-30%" y="-30%" width="160%" height="160%"><feDropShadow dx="0" dy="10" stdDeviation="12" flood-color="#000000" flood-opacity="0.45"></feDropShadow></filter>
</defs>
<rect x="0" y="0" width="512" height="512" rx="120.3" fill="url(#bg)"></rect>
<rect x="3" y="3" width="506" height="506" rx="115.2" fill="none" stroke="#ffffff" stroke-opacity="0.1" stroke-width="3"></rect>
<rect x="0" y="0" width="512" height="512" rx="120.3" fill="url(#gloss)"></rect>
<g filter="url(#sh)">
<path d="M 114.6 206.0 A 150 150 0 0 1 397.4 206.0" fill="none" stroke="url(#ring)" stroke-width="34" stroke-linecap="round"></path>
<path d="M 397.4 306.0 A 150 150 0 0 1 114.6 306.0" fill="none" stroke="url(#ring)" stroke-width="34" stroke-linecap="round"></path>
<polygon points="412.6,246.2 422.0,186.1 365.9,207.3" fill="#fbbf24"></polygon>
<polygon points="99.4,265.8 90.0,325.9 146.1,304.7" fill="#fbbf24"></polygon>
</g>
<path d="M 114.6 206.0 A 150 150 0 0 1 397.4 206.0" fill="none" stroke="#ffffff" stroke-opacity="0.35" stroke-width="10.88" stroke-linecap="round" transform="translate(0,-4)"></path>
<path d="M 397.4 306.0 A 150 150 0 0 1 114.6 306.0" fill="none" stroke="#ffffff" stroke-opacity="0.21" stroke-width="10.88" stroke-linecap="round" transform="translate(0,-4)"></path>
<g filter="url(#sh)">
<rect x="198" y="194" width="42" height="124" rx="21" fill="url(#bar)"></rect>
<rect x="272" y="194" width="42" height="124" rx="21" fill="url(#bar)"></rect>
</g>
</svg>